<?xml version="1.0" standalone="no"?>
<!DOCTYPE svg PUBLIC "-//W3C//DTD SVG 1.1//EN" "http://www.w3.org/Graphics/SVG/1.1/DTD/svg11.dtd">
<!--Generator: Xara Xtreme (www.xara.com), SVG filter version: 1.0.0.13-->
<svg stroke-width="0.501" stroke-linejoin="bevel" fill-rule="evenodd" xmlns:xlink="http://www.w3.org/1999/xlink" xmlns="http://www.w3.org/2000/svg" version="1.1" overflow="visible" width="708.819pt" height="506.908pt" viewBox="0 0 708.819 506.908">
 <defs>
  <marker id="DefaultArrow2" markerUnits="strokeWidth" viewBox="0 0 1 1" markerWidth="1" markerHeight="1" overflow="visible" orient="auto">
   <!-- REF_ARROW_STRAIGHT (-2) -->
   <g transform="scale(0.0092592592)">
    <!-- 1/108 -->
    <path d="M -9 54 L -9 -54 L 117 0 z"/>
   </g>
  </marker>
  <marker id="DefaultArrow3" markerUnits="strokeWidth" viewBox="0 0 1 1" markerWidth="1" markerHeight="1" overflow="visible" orient="auto">
   <!-- REF_ARROW_ANGLED -->
   <g transform="scale(0.0092592592)">
    <path d="M -27 54 L -9 0 L -27 -54 L 135 0 z"/>
   </g>
  </marker>
  <marker id="DefaultArrow4" markerUnits="strokeWidth" viewBox="0 0 1 1" markerWidth="1" markerHeight="1" overflow="visible" orient="auto">
   <!-- REF_ARROW_ROUNDED -->
   <g transform="scale(0.0092592592)">
    <path d="M -9,0 L -9,-45 C -9,-51.708 2.808,-56.580 9,-54 L 117,-9 C 120.916,-7.369 126.000,-4.242 126,0 C 126,4.242 120.916,7.369 117,9 L 9,54 C 2.808,56.580 -9,51.708 -9,45 z"/>
   </g>
  </marker>
  <marker id="DefaultArrow5" markerUnits="strokeWidth" viewBox="0 0 1 1" markerWidth="1" markerHeight="1" overflow="visible" orient="auto">
   <!-- REF_ARROW_SPOT -->
   <g transform="scale(0.0092592592)">
    <path d="M -54, 0 C -54,29.807 -29.807,54 0,54 C 29.807,54 54,29.807 54,0 C 54,-29.807 29.807,-54 0,-54 C -29.807,-54 -54,-29.807 -54,0 z"/>
   </g>
  </marker>
  <marker id="DefaultArrow6" markerUnits="strokeWidth" viewBox="0 0 1 1" markerWidth="1" markerHeight="1" overflow="visible" orient="auto">
   <!-- REF_ARROW_DIAMOND -->
   <g transform="scale(0.0092592592)">
    <path d="M -63,0 L 0,63 L 63,0 L 0,-63 z"/>
   </g>
  </marker>
  <marker id="DefaultArrow7" markerUnits="strokeWidth" viewBox="0 0 1 1" markerWidth="1" markerHeight="1" overflow="visible" orient="auto">
   <!-- REF_ARROW_FEATHER -->
   <g transform="scale(0.0092592592)">
    <path d="M 18,-54 L 108,-54 L 63,0 L 108,54 L 18, 54 L -36,0 z"/>
   </g>
  </marker>
  <marker id="DefaultArrow8" markerUnits="strokeWidth" viewBox="0 0 1 1" markerWidth="1" markerHeight="1" overflow="visible" orient="auto">
   <!-- REF_ARROW_FEATHER2 -->
   <g transform="scale(0.0092592592)">
    <path d="M -36,0 L 18,-54 L 54,-54 L 18,-18 L 27,-18 L 63,-54 L 99,-54 L 63,-18 L 72,-18 L 108,-54 L 144,-54 L 90,0 L 144,54 L 108,54 L 72,18 L 63,18 L 99,54 L 63,54 L 27,18 L 18,18 L 54,54 L 18,54 z"/>
   </g>
  </marker>
  <marker id="DefaultArrow9" markerUnits="strokeWidth" viewBox="0 0 1 1" markerWidth="1" markerHeight="1" overflow="visible" orient="auto">
   <!-- REF_ARROW_HOLLOWDIAMOND -->
   <g transform="scale(0.0092592592)">
    <path d="M 0,45 L -45,0 L 0, -45 L 45, 0 z M 0, 63 L-63, 0 L 0, -63 L 63, 0 z"/>
   </g>
  </marker>
  <filter id="StainedFilter">
   <feBlend mode="multiply" in2="BackgroundImage" in="SourceGraphic" result="blend"/>
   <feComposite in="blend" in2="SourceAlpha" operator="in" result="comp"/>
  </filter>
  <filter id="BleachFilter">
   <feBlend mode="screen" in2="BackgroundImage" in="SourceGraphic" result="blend"/>
   <feComposite in="blend" in2="SourceAlpha" operator="in" result="comp"/>
  </filter>
  <filter id="InvertTransparencyBitmapFilter">
   <feComponentTransfer>
    <feFuncR type="gamma" amplitude="1.055" exponent=".416666666" offset="-0.055"/>
    <feFuncG type="gamma" amplitude="1.055" exponent=".416666666" offset="-0.055"/>
    <feFuncB type="gamma" amplitude="1.055" exponent=".416666666" offset="-0.055"/>
   </feComponentTransfer>
   <feComponentTransfer>
    <feFuncR type="linear" slope="-1" intercept="1"/>
    <feFuncG type="linear" slope="-1" intercept="1"/>
    <feFuncB type="linear" slope="-1" intercept="1"/>
    <feFuncA type="linear" slope="1" intercept="0"/>
   </feComponentTransfer>
   <feComponentTransfer>
    <feFuncR type="gamma" amplitude="1" exponent="2.4" offset="0"/>
    <feFuncG type="gamma" amplitude="1" exponent="2.4" offset="0"/>
    <feFuncB type="gamma" amplitude="1" exponent="2.4" offset="0"/>
   </feComponentTransfer>
  </filter>
 </defs>
 <g id="Document" fill="none" stroke="black" font-family="Times New Roman" font-size="16" transform="scale(1 -1)">
  <g id="Spread" transform="translate(0 -506.908)">
   <g id="Layer 1">
    <rect x="13.82" y="16.363" width="678" height="113.999" fill="#004040" stroke-linecap="round" stroke="#000000" stroke-width="0.5" stroke-linejoin="miter" stroke-miterlimit="79.8403193612775"/>
    <g id="Group" stroke="none">
     <path d="M 58.669,223.971 C 79.368,224.154 96.316,207.503 96.497,186.803 C 96.68,166.104 80.029,149.156 59.329,148.975 C 38.63,148.792 21.682,165.443 21.501,186.143 C 21.318,206.842 37.969,223.79 58.669,223.971 Z M 29.619,186.214 C 29.763,169.998 43.041,156.951 59.258,157.093 C 75.474,157.237 88.521,170.515 88.379,186.731 C 88.235,202.948 74.957,215.993 58.74,215.851 C 42.524,215.709 29.477,202.431 29.619,186.214 Z" stroke-opacity="0.200000" stroke-linejoin="round" stroke-linecap="round" stroke-width="0.263" fill="#000000" marker-start="none" marker-end="none" stroke-miterlimit="79.8403193612775" fill-opacity="0.200000"/>
     <mask id="TranspMask">
      <rect x="-10%" y="-10%" width="120%" height="120%" fill="#333333" stroke="none"/>
     </mask>
     <g id="Group_1" fill-rule="nonzero" fill="#000000" mask="url(#TranspMask)">
      <g id="Group_2">
       <path d="M 49.313,160.262 L 49.315,165.895 L 47.568,165.895 L 47.566,160.946 C 45.044,162.031 42.644,163.484 40.446,165.307 L 40.447,170.464 C 40.447,176.284 43.696,179.196 50.187,179.193 L 68.254,179.193 C 74.702,179.196 77.927,176.284 77.927,170.464 L 77.927,165.307 C 75.73,163.484 73.329,162.031 70.807,160.946 L 70.807,165.895 L 69.06,165.895 L 69.06,160.262 C 62.688,157.995 55.687,157.995 49.313,160.262 Z M 53.679,183.225 C 52.157,185.284 51.396,187.614 51.396,190.211 C 51.396,192.762 52.146,194.943 53.646,196.759 C 55.146,198.571 56.971,199.479 59.119,199.479 C 61.224,199.479 63.038,198.571 64.562,196.759 C 66.083,194.943 66.844,192.762 66.844,190.211 C 66.844,187.614 66.083,185.284 64.562,183.225 C 63.038,181.165 61.224,180.136 59.119,180.136 C 57.015,180.136 55.202,181.165 53.679,183.225 Z" marker-start="none" marker-end="none"/>
      </g>
     </g>
    </g>
    <g id="Group_3" stroke="none" fill="#000000">
     <path d="M 114.979,159.947 C 100.34,174.586 100.34,198.35 114.979,212.989 C 129.618,227.628 153.382,227.628 168.021,212.989 C 182.66,198.35 182.66,174.586 168.021,159.947 C 153.382,145.308 129.618,145.308 114.979,159.947 Z M 162.278,165.69 C 173.747,177.16 173.747,195.777 162.278,207.246 C 150.809,218.715 132.191,218.715 120.722,207.246 C 109.253,195.777 109.253,177.16 120.722,165.69 C 132.191,154.221 150.809,154.221 162.278,165.69 Z" stroke-opacity="0.200000" stroke-linejoin="round" stroke-linecap="round" stroke-width="0.262" marker-start="none" marker-end="none" stroke-miterlimit="79.8403193612775" fill-opacity="0.200000"/>
     <mask id="TranspMask_1">
      <rect x="-10%" y="-10%" width="120%" height="120%" fill="#333333" stroke="none"/>
     </mask>
     <g id="Group_4" fill-rule="nonzero" mask="url(#TranspMask_1)">
      <g id="Group_5">
       <g id="Group_6">
        <path d="M 133.039,159.74 L 133.039,170.706 L 131.843,170.706 L 131.842,160.122 C 127.746,161.528 123.9,163.864 120.634,167.13 C 119.8,167.965 119.026,168.836 118.313,169.741 L 118.314,170.706 L 117.585,170.706 C 115.912,173.018 114.617,175.519 113.7,178.124 C 114.808,179.253 116.546,179.817 118.912,179.817 L 131.291,179.817 C 135.708,179.819 137.917,177.824 137.917,173.835 L 137.917,158.736 C 136.271,158.931 134.639,159.266 133.039,159.74 Z M 121.305,182.579 C 120.262,183.99 119.74,185.586 119.74,187.364 C 119.74,189.113 120.254,190.608 121.282,191.851 C 122.31,193.093 123.56,193.715 125.032,193.715 C 126.474,193.715 127.717,193.093 128.76,191.851 C 129.804,190.608 130.324,189.113 130.324,187.364 C 130.324,185.586 129.804,183.99 128.76,182.579 C 127.717,181.168 126.474,180.462 125.032,180.462 C 123.59,180.462 122.348,181.168 121.305,182.579 Z" marker-start="none" marker-end="none"/>
       </g>
      </g>
      <g id="Group_7">
       <g id="Group_8">
        <path d="M 144.906,158.735 L 144.906,173.835 C 144.906,177.824 147.132,179.819 151.58,179.817 L 163.957,179.817 C 166.303,179.817 168.026,179.256 169.126,178.131 C 168.209,175.524 166.914,173.02 165.239,170.706 L 164.51,170.706 L 164.51,169.74 C 163.798,168.836 163.024,167.965 162.19,167.13 C 158.923,163.863 155.077,161.527 150.981,160.122 L 150.981,170.706 L 149.785,170.706 L 149.785,159.74 C 148.185,159.266 146.552,158.931 144.906,158.735 Z M 153.972,182.579 C 152.929,183.99 152.408,185.586 152.408,187.364 C 152.408,189.113 152.921,190.608 153.95,191.851 C 154.977,193.093 156.227,193.715 157.7,193.715 C 159.141,193.715 160.384,193.093 161.427,191.851 C 162.471,190.608 162.992,189.113 162.992,187.364 C 162.992,185.586 162.471,183.99 161.427,182.579 C 160.384,181.168 159.141,180.462 157.7,180.462 C 156.258,180.462 155.015,181.168 153.972,182.579 Z" marker-start="none" marker-end="none"/>
       </g>
      </g>
      <g id="Group_9">
       <g id="Group_10">
        <path d="M 133.76,159.536 L 133.76,171.124 L 132.337,171.124 L 132.336,159.957 C 130.332,160.605 128.384,161.474 126.53,162.564 L 126.531,174.849 C 126.531,179.595 129.179,181.97 134.472,181.968 L 149.205,181.968 C 154.463,181.97 157.092,179.595 157.092,174.849 L 157.092,163.051 C 155.245,161.884 153.296,160.943 151.286,160.228 L 151.286,171.124 L 149.862,171.124 L 149.862,159.763 C 144.623,158.196 139.032,158.121 133.76,159.536 Z M 137.32,185.255 C 136.079,186.934 135.459,188.833 135.459,190.951 C 135.459,193.032 136.069,194.811 137.294,196.291 C 138.516,197.769 140.004,198.509 141.757,198.509 C 143.472,198.509 144.952,197.769 146.194,196.291 C 147.435,194.811 148.055,193.032 148.055,190.951 C 148.055,188.833 147.435,186.934 146.194,185.255 C 144.952,183.576 143.472,182.736 141.757,182.736 C 140.04,182.736 138.562,183.576 137.32,185.255 Z" marker-start="none" marker-end="none"/>
       </g>
      </g>
     </g>
    </g>
    <g id="Group_11" stroke-linejoin="round" stroke-linecap="round" stroke-opacity="0.200000" stroke="none" fill="#000000" fill-opacity="0.200000">
     <path d="M 197.479,159.947 C 182.84,174.586 182.84,198.35 197.479,212.989 C 212.118,227.628 235.882,227.628 250.521,212.989 C 265.16,198.35 265.16,174.586 250.521,159.947 C 235.882,145.308 212.118,145.308 197.479,159.947 Z M 244.778,165.69 C 256.247,177.16 256.247,195.777 244.778,207.246 C 233.309,218.715 214.691,218.715 203.222,207.246 C 191.753,195.777 191.753,177.16 203.222,165.69 C 214.691,154.221 233.309,154.221 244.778,165.69 Z" stroke-width="0.262" marker-start="none" marker-end="none" stroke-miterlimit="79.8403193612775" fill-opacity="0.200000"/>
     <path d="M 222.793,161.303 L 222.793,163.931 C 221.411,164.052 220.29,164.271 219.43,164.592 C 218.57,164.911 217.827,165.354 217.202,165.92 C 216.578,166.486 216.096,167.095 215.757,167.749 C 215.419,168.403 215.165,169.193 214.996,170.12 L 220.692,170.774 C 220.861,169.855 221.089,169.193 221.376,168.785 C 221.663,168.377 222.135,168.016 222.793,167.7 L 222.793,172.61 C 220.894,173.129 219.548,173.579 218.754,173.959 C 217.959,174.339 217.27,174.948 216.688,175.788 C 216.105,176.626 215.814,177.649 215.814,178.854 C 215.814,180.504 216.399,181.884 217.569,182.992 C 218.739,184.099 220.48,184.714 222.793,184.834 L 222.793,186.211 L 224.851,186.211 L 224.851,184.834 C 226.956,184.705 228.566,184.213 229.68,183.36 C 230.794,182.507 231.52,181.339 231.858,179.855 L 226.613,179.035 C 226.35,179.693 226.113,180.15 225.902,180.405 C 225.69,180.66 225.34,180.917 224.851,181.177 L 224.851,177.158 C 227.708,176.406 229.616,175.614 230.576,174.779 C 231.845,173.657 232.478,172.234 232.478,170.51 C 232.478,169.499 232.251,168.572 231.795,167.728 C 231.339,166.884 230.757,166.18 230.047,165.614 C 229.338,165.048 228.583,164.638 227.784,164.383 C 226.985,164.128 226.007,163.978 224.851,163.931 L 224.851,161.303 L 222.793,161.303 Z M 202.96,167.13 C 201.73,168.36 200.631,169.672 199.665,171.049 L 199.665,192.6 L 247.811,192.6 L 247.811,171.05 C 246.844,169.673 245.746,168.361 244.516,167.13 C 244.064,166.679 243.602,166.245 243.129,165.829 L 243.129,187.697 L 204.348,187.697 L 204.347,165.829 C 203.875,166.245 203.411,166.678 202.96,167.13 Z M 226.606,168.43 C 226.977,168.834 227.163,169.285 227.163,169.786 C 227.163,170.222 227.006,170.623 226.691,170.99 C 226.376,171.356 225.763,171.696 224.851,172.012 L 224.851,167.561 C 225.65,167.737 226.236,168.027 226.606,168.43 Z M 222.793,177.686 L 222.793,181.246 C 222.191,181.052 221.773,180.81 221.538,180.523 C 221.303,180.236 221.186,179.897 221.186,179.508 C 221.186,179.1 221.306,178.745 221.545,178.444 C 221.784,178.143 222.2,177.89 222.793,177.686 Z" stroke-width="0.205" marker-start="none" marker-end="none" stroke-miterlimit="79.8403193612775" fill-opacity="0.200000"/>
    </g>
    <g id="Group_12" stroke-linecap="round" stroke-opacity="0.200000" stroke="none" fill="#000000" fill-opacity="0.200000">
     <path d="M 306.169,223.965 C 326.868,224.148 343.816,207.497 343.997,186.797 C 344.18,166.098 327.529,149.15 306.829,148.969 C 286.13,148.786 269.182,165.437 269.001,186.137 C 268.818,206.836 285.469,223.784 306.169,223.965 Z M 277.119,186.208 C 277.263,169.992 290.541,156.945 306.758,157.087 C 322.974,157.231 336.021,170.509 335.879,186.725 C 335.735,202.942 322.457,215.987 306.24,215.845 C 290.024,215.703 276.977,202.425 277.119,186.208 Z" stroke-linejoin="round" stroke-width="0.263" marker-start="none" marker-end="none" stroke-miterlimit="79.8403193612775" fill-opacity="0.200000"/>
     <path d="M 291.774,161.77 L 296.75,161.77 L 296.75,173.898 L 281.753,173.898 L 281.752,172.484 C 280.932,174.012 280.246,175.625 279.709,177.307 L 279.709,189.81 L 332.261,189.81 L 332.261,174.682 C 331.604,173.159 330.821,171.706 329.924,170.336 L 329.924,173.704 L 314.927,173.704 L 314.927,161.576 L 320.862,161.576 C 319.868,160.974 318.834,160.432 317.765,159.957 L 295.186,159.957 C 294.004,160.483 292.864,161.089 291.774,161.77 Z M 313.628,161.965 L 313.628,174.092 L 298.631,174.092 L 298.631,161.965 L 313.628,161.965 Z M 313.434,175.738 L 313.434,187.866 L 298.437,187.866 L 298.437,175.738 L 313.434,175.738 Z M 329.924,175.738 L 329.924,187.866 L 314.927,187.866 L 314.927,175.738 L 329.924,175.738 Z M 296.944,175.833 L 296.944,187.961 L 281.947,187.961 L 281.947,175.833 L 296.944,175.833 Z" stroke-linejoin="miter" stroke-width="0.129" marker-start="none" marker-end="none" stroke-miterlimit="79.8403193612775" fill-opacity="0.200000"/>
     <rect x="316.601" y="177.208" width="11.91" height="9.659" stroke-width="0.129" stroke-linejoin="miter" stroke-miterlimit="79.8403193612775" fill-opacity="0.200000"/>
    </g>
    <mask id="TranspMask_2">
     <rect x="-10%" y="-10%" width="120%" height="120%" fill="#333333" stroke="none"/>
    </mask>
    <g id="Group_13" stroke="none" mask="url(#TranspMask_2)">
     <path d="M 407.55,164.226 L 407.55,186.491 L 369.451,186.491 L 369.45,165.343 C 367.742,167.035 366.246,168.945 365.004,171.029 L 365.004,192.511 L 412.871,192.511 L 412.871,170.506 C 411.404,168.159 409.608,166.043 407.55,164.226 Z" fill="#000000" stroke-linejoin="miter" stroke-linecap="round" stroke-width="0.263" stroke-opacity="0.200000" marker-start="none" marker-end="none" stroke-miterlimit="79.8403193612775"/>
     <path d="M 388.669,223.965 C 409.368,224.148 426.316,207.497 426.497,186.797 C 426.68,166.098 410.029,149.15 389.329,148.969 C 368.63,148.786 351.682,165.437 351.501,186.137 C 351.318,206.836 367.969,223.784 388.669,223.965 Z M 359.619,186.208 C 359.763,169.992 373.041,156.945 389.258,157.087 C 405.474,157.231 418.521,170.509 418.379,186.725 C 418.235,202.942 404.957,215.987 388.74,215.845 C 372.524,215.703 359.477,202.425 359.619,186.208 Z" stroke-linecap="round" fill="#000000" stroke-linejoin="round" stroke-width="0.263" marker-start="none" marker-end="none" stroke-miterlimit="79.8403193612775"/>
     <text xml:space="preserve" transform="translate(376.414 159.881) scale(1 -1)"><tspan x="0" y="0" font-size="48" font-family="Wingdings" fill="#000000"></tspan></text>
    </g>
    <mask id="TranspMask_3">
     <rect x="-10%" y="-10%" width="120%" height="120%" fill="#333333" stroke="none"/>
    </mask>
    <g id="Group_14" stroke-linecap="round" stroke="none" fill="#000000" mask="url(#TranspMask_3)">
     <path d="M 444.979,159.947 C 430.34,174.586 430.34,198.35 444.979,212.989 C 459.618,227.628 483.382,227.628 498.021,212.989 C 512.66,198.35 512.66,174.586 498.021,159.947 C 483.382,145.308 459.618,145.308 444.979,159.947 Z M 492.278,165.69 C 503.747,177.16 503.747,195.777 492.278,207.246 C 480.809,218.715 462.191,218.715 450.722,207.246 C 439.253,195.777 439.253,177.16 450.722,165.69 C 462.191,154.221 480.809,154.221 492.278,165.69 Z" stroke-linejoin="round" stroke-width="0.262" marker-start="none" marker-end="none" stroke-miterlimit="79.8403193612775"/>
     <g id="Group_15" stroke-linejoin="miter" stroke-opacity="0.200000" stroke-width="0.168" stroke-miterlimit="79.8403193612775">
      <rect x="465.08" y="160.832" width="12.316" height="11.58"/>
      <path d="M 483.894,168.317 L 477.566,175.952 L 471.238,183.587 L 464.909,175.953 L 458.581,168.318 L 471.237,168.317 L 483.894,168.317 Z" marker-start="none" marker-end="none"/>
      <rect x="458.721" y="184.209" width="25.259" height="5.136"/>
     </g>
    </g>
    <g id="Group_16" stroke="none">
     <path d="M 527.479,159.947 C 512.84,174.586 512.84,198.35 527.479,212.989 C 542.118,227.628 565.882,227.628 580.521,212.989 C 595.16,198.35 595.16,174.586 580.521,159.947 C 565.882,145.308 542.118,145.308 527.479,159.947 Z M 574.778,165.69 C 586.247,177.16 586.247,195.777 574.778,207.246 C 563.309,218.715 544.691,218.715 533.222,207.246 C 521.753,195.777 521.753,177.16 533.222,165.69 C 544.691,154.221 563.309,154.221 574.778,165.69 Z" stroke-opacity="0.200000" stroke-linecap="round" fill="#000000" stroke-linejoin="round" stroke-width="0.262" marker-start="none" marker-end="none" stroke-miterlimit="79.8403193612775" fill-opacity="0.200000"/>
     <mask id="TranspMask_4">
      <rect x="-10%" y="-10%" width="120%" height="120%" fill="#333333" stroke="none"/>
     </mask>
     <g id="Group_17" fill-rule="nonzero" fill="#000000" mask="url(#TranspMask_4)">
      <g id="Group_18">
       <path d="M 544.314,160.016 L 544.316,165.649 L 542.569,165.649 L 542.567,160.7 C 540.045,161.785 537.645,163.238 535.447,165.061 L 535.448,170.218 C 535.448,176.038 538.697,178.95 545.188,178.947 L 563.255,178.947 C 569.703,178.95 572.928,176.038 572.928,170.218 L 572.928,165.061 C 570.731,163.238 568.33,161.785 565.808,160.7 L 565.808,165.649 L 564.061,165.649 L 564.061,160.016 C 557.689,157.749 550.688,157.749 544.314,160.016 Z M 553.058,170.371 L 558.855,170.371 L 558.855,168.808 C 558.855,168.335 559.239,167.951 559.713,167.951 L 560.449,167.951 L 560.449,168.83 L 561.633,168.83 L 561.633,167.951 L 562.259,167.951 C 562.732,167.951 563.117,168.335 563.117,168.808 L 563.117,172.975 C 563.117,173.211 562.924,173.404 562.688,173.404 L 553.008,173.404 C 552.363,175.139 550.691,176.376 548.733,176.376 C 546.216,176.376 544.172,174.332 544.172,171.815 C 544.172,169.299 546.216,167.256 548.733,167.256 C 550.743,167.256 552.453,168.561 553.058,170.371 Z M 548.68,182.979 C 547.158,185.038 546.397,187.368 546.397,189.965 C 546.397,192.516 547.147,194.697 548.647,196.513 C 550.147,198.325 551.972,199.233 554.12,199.233 C 556.225,199.233 558.039,198.325 559.563,196.513 C 561.084,194.697 561.845,192.516 561.845,189.965 C 561.845,187.368 561.084,185.038 559.563,182.979 C 558.039,180.919 556.225,179.89 554.12,179.89 C 552.016,179.89 550.203,180.919 548.68,182.979 Z" marker-start="none" marker-end="none"/>
      </g>
     </g>
    </g>
    <g id="Group_19" stroke="none">
     <path d="M 636.169,223.965 C 656.868,224.148 673.816,207.497 673.997,186.797 C 674.18,166.098 657.529,149.15 636.829,148.969 C 616.13,148.786 599.182,165.437 599.001,186.137 C 598.818,206.836 615.469,223.784 636.169,223.965 Z M 607.119,186.208 C 607.263,169.992 620.541,156.945 636.758,157.087 C 652.974,157.231 666.021,170.509 665.879,186.725 C 665.735,202.942 652.457,215.987 636.24,215.845 C 620.024,215.703 606.977,202.425 607.119,186.208 Z" stroke-opacity="0.200000" stroke-linejoin="round" stroke-linecap="round" stroke-width="0.263" fill="#000000" marker-start="none" marker-end="none" stroke-miterlimit="79.8403193612775" fill-opacity="0.200000"/>
     <mask id="TranspMask_5">
      <rect x="-10%" y="-10%" width="120%" height="120%" fill="#333333" stroke="none"/>
     </mask>
     <g id="Group_20" mask="url(#TranspMask_5)">
      <path d="M 624.68,196.44 L 624.618,190.049 L 624.399,190.049 C 620.542,190.049 617.409,186.916 617.409,183.058 L 617.409,170.895 C 617.409,167.035 620.542,163.903 624.399,163.903 L 649.008,163.903 C 652.866,163.903 655.999,167.035 655.999,170.895 L 655.999,183.058 C 655.999,186.916 652.866,190.049 649.008,190.049 L 632.368,190.049 L 628.174,196.536 C 626.086,197.79 625.235,197.321 624.68,196.44 Z M 626.777,194.493 L 630.129,189.287 L 631.137,187.655 L 648.122,187.655 C 651.226,187.655 653.746,185.135 653.746,182.032 L 653.746,171.705 C 653.746,168.602 651.226,166.083 648.122,166.083 L 625.238,166.083 C 622.136,166.083 619.617,168.602 619.617,171.705 L 619.617,182.032 C 619.617,185.135 622.136,187.655 625.238,187.655 L 626.776,187.655 L 626.775,188.553 L 626.777,188.553 L 626.776,189.945 C 626.777,189.98 626.781,190.015 626.789,190.049 L 626.777,190.049 L 626.777,194.493 Z" stroke-linejoin="miter" stroke-linecap="round" stroke-width="0.069" fill="#000000" marker-start="none" marker-end="none" stroke-miterlimit="79.8403193612775"/>
      <text xml:space="preserve" transform="translate(623.194 172.038) scale(1 -1)" font-size="15.609" font-weight="bold" font-family="Verdana" fill="#000000"><tspan x="0" y="0">A</tspan></text>
      <text xml:space="preserve" transform="translate(636.468 171.863) scale(1 -1)" font-family="KaiTi" fill="#000000"><tspan x="0" y="0" font-size="14.896">㕊</tspan></text>
     </g>
    </g>
    <g id="Group_21" fill="#ffffff" stroke="none">
     <path d="M 116.548,402.341 C 101.909,416.98 101.909,440.744 116.548,455.383 C 131.187,470.022 154.951,470.022 169.59,455.383 C 184.229,440.744 184.229,416.98 169.59,402.341 C 154.951,387.702 131.187,387.702 116.548,402.341 Z M 163.847,408.084 C 175.316,419.554 175.316,438.171 163.847,449.64 C 152.378,461.109 133.76,461.109 122.291,449.64 C 110.822,438.171 110.822,419.554 122.291,408.084 C 133.76,396.615 152.378,396.615 163.847,408.084 Z" stroke-opacity="0.200000" stroke-linejoin="round" stroke-linecap="round" stroke-width="0.262" marker-start="none" marker-end="none" stroke-miterlimit="79.8403193612775" fill-opacity="0.200000"/>
     <mask id="TranspMask_6">
      <rect x="-10%" y="-10%" width="120%" height="120%" fill="#333333" stroke="none"/>
     </mask>
     <g id="Group_22" fill-rule="nonzero" mask="url(#TranspMask_6)">
      <g id="Group_23">
       <g id="Group_24">
        <path d="M 134.608,402.134 L 134.608,413.1 L 133.412,413.1 L 133.411,402.516 C 129.315,403.922 125.469,406.258 122.203,409.524 C 121.369,410.359 120.595,411.23 119.882,412.135 L 119.883,413.1 L 119.154,413.1 C 117.481,415.412 116.186,417.913 115.269,420.518 C 116.377,421.647 118.115,422.211 120.481,422.211 L 132.86,422.211 C 137.277,422.213 139.486,420.218 139.486,416.229 L 139.486,401.13 C 137.84,401.325 136.208,401.66 134.608,402.134 Z M 122.874,424.973 C 121.831,426.384 121.309,427.98 121.309,429.758 C 121.309,431.507 121.823,433.002 122.851,434.245 C 123.879,435.487 125.129,436.109 126.601,436.109 C 128.043,436.109 129.286,435.487 130.329,434.245 C 131.373,433.002 131.893,431.507 131.893,429.758 C 131.893,427.98 131.373,426.384 130.329,424.973 C 129.286,423.562 128.043,422.856 126.601,422.856 C 125.159,422.856 123.917,423.562 122.874,424.973 Z" marker-start="none" marker-end="none"/>
       </g>
      </g>
      <g id="Group_25">
       <g id="Group_26">
        <path d="M 146.475,401.129 L 146.475,416.229 C 146.475,420.218 148.701,422.213 153.149,422.211 L 165.526,422.211 C 167.872,422.211 169.595,421.65 170.695,420.525 C 169.778,417.918 168.483,415.414 166.808,413.1 L 166.079,413.1 L 166.079,412.134 C 165.367,411.23 164.593,410.359 163.759,409.524 C 160.492,406.257 156.646,403.921 152.55,402.516 L 152.55,413.1 L 151.354,413.1 L 151.354,402.134 C 149.754,401.66 148.121,401.325 146.475,401.129 Z M 155.541,424.973 C 154.498,426.384 153.977,427.98 153.977,429.758 C 153.977,431.507 154.49,433.002 155.519,434.245 C 156.546,435.487 157.796,436.109 159.269,436.109 C 160.71,436.109 161.953,435.487 162.996,434.245 C 164.04,433.002 164.561,431.507 164.561,429.758 C 164.561,427.98 164.04,426.384 162.996,424.973 C 161.953,423.562 160.71,422.856 159.269,422.856 C 157.827,422.856 156.584,423.562 155.541,424.973 Z" marker-start="none" marker-end="none"/>
       </g>
      </g>
      <g id="Group_27">
       <g id="Group_28">
        <path d="M 135.329,401.93 L 135.329,413.518 L 133.906,413.518 L 133.905,402.351 C 131.901,402.999 129.953,403.868 128.099,404.958 L 128.1,417.243 C 128.1,421.989 130.748,424.364 136.041,424.362 L 150.774,424.362 C 156.032,424.364 158.661,421.989 158.661,417.243 L 158.661,405.445 C 156.814,404.278 154.865,403.337 152.855,402.622 L 152.855,413.518 L 151.431,413.518 L 151.431,402.157 C 146.192,400.59 140.601,400.515 135.329,401.93 Z M 138.889,427.649 C 137.648,429.328 137.028,431.227 137.028,433.345 C 137.028,435.426 137.638,437.205 138.863,438.685 C 140.085,440.163 141.573,440.903 143.326,440.903 C 145.041,440.903 146.521,440.163 147.763,438.685 C 149.004,437.205 149.624,435.426 149.624,433.345 C 149.624,431.227 149.004,429.328 147.763,427.649 C 146.521,425.97 145.041,425.13 143.326,425.13 C 141.609,425.13 140.131,425.97 138.889,427.649 Z" marker-start="none" marker-end="none"/>
       </g>
      </g>
     </g>
    </g>
    <g id="Group_29" fill="#ffffff" stroke-linejoin="round" stroke-linecap="round" stroke-opacity="0.200000" stroke="none" fill-opacity="0.200000">
     <path d="M 199.048,402.341 C 184.409,416.98 184.409,440.744 199.048,455.383 C 213.687,470.022 237.451,470.022 252.09,455.383 C 266.729,440.744 266.729,416.98 252.09,402.341 C 237.451,387.702 213.687,387.702 199.048,402.341 Z M 246.347,408.084 C 257.816,419.554 257.816,438.171 246.347,449.64 C 234.878,461.109 216.26,461.109 204.791,449.64 C 193.322,438.171 193.322,419.554 204.791,408.084 C 216.26,396.615 234.878,396.615 246.347,408.084 Z" stroke-width="0.262" marker-start="none" marker-end="none" stroke-miterlimit="79.8403193612775" fill-opacity="0.200000"/>
     <path d="M 224.362,403.697 L 224.362,406.325 C 222.98,406.446 221.859,406.665 220.999,406.986 C 220.139,407.305 219.396,407.748 218.771,408.314 C 218.147,408.88 217.665,409.489 217.326,410.143 C 216.988,410.797 216.734,411.587 216.565,412.514 L 222.261,413.168 C 222.43,412.249 222.658,411.587 222.945,411.179 C 223.232,410.771 223.704,410.41 224.362,410.094 L 224.362,415.004 C 222.463,415.523 221.117,415.973 220.323,416.353 C 219.528,416.733 218.839,417.342 218.257,418.182 C 217.674,419.02 217.383,420.043 217.383,421.248 C 217.383,422.898 217.968,424.278 219.138,425.386 C 220.308,426.493 222.049,427.108 224.362,427.228 L 224.362,428.605 L 226.42,428.605 L 226.42,427.228 C 228.525,427.099 230.135,426.607 231.249,425.754 C 232.363,424.901 233.089,423.733 233.427,422.249 L 228.182,421.429 C 227.919,422.087 227.682,422.544 227.471,422.799 C 227.259,423.054 226.909,423.311 226.42,423.571 L 226.42,419.552 C 229.277,418.8 231.185,418.008 232.145,417.173 C 233.414,416.051 234.047,414.628 234.047,412.904 C 234.047,411.893 233.82,410.966 233.364,410.122 C 232.908,409.278 232.326,408.574 231.616,408.008 C 230.907,407.442 230.152,407.032 229.353,406.777 C 228.554,406.522 227.576,406.372 226.42,406.325 L 226.42,403.697 L 224.362,403.697 Z M 204.529,409.524 C 203.299,410.754 202.2,412.066 201.234,413.443 L 201.234,434.994 L 249.38,434.994 L 249.38,413.444 C 248.413,412.067 247.315,410.755 246.085,409.524 C 245.633,409.073 245.171,408.639 244.698,408.223 L 244.698,430.091 L 205.917,430.091 L 205.916,408.223 C 205.444,408.639 204.98,409.072 204.529,409.524 Z M 228.175,410.824 C 228.546,411.228 228.732,411.679 228.732,412.18 C 228.732,412.616 228.575,413.017 228.26,413.384 C 227.945,413.75 227.332,414.09 226.42,414.406 L 226.42,409.955 C 227.219,410.131 227.805,410.421 228.175,410.824 Z M 224.362,420.08 L 224.362,423.64 C 223.76,423.446 223.342,423.204 223.107,422.917 C 222.872,422.63 222.755,422.291 222.755,421.902 C 222.755,421.494 222.875,421.139 223.114,420.838 C 223.353,420.537 223.769,420.284 224.362,420.08 Z" stroke-width="0.205" marker-start="none" marker-end="none" stroke-miterlimit="79.8403193612775" fill-opacity="0.200000"/>
    </g>
    <g id="Group_30" fill="#ffffff" stroke-linecap="round" stroke-opacity="0.200000" stroke="none" fill-opacity="0.200000">
     <path d="M 307.738,466.359 C 328.437,466.542 345.385,449.891 345.566,429.191 C 345.749,408.492 329.098,391.544 308.398,391.363 C 287.699,391.18 270.751,407.831 270.57,428.531 C 270.387,449.23 287.038,466.178 307.738,466.359 Z M 278.688,428.602 C 278.832,412.386 292.11,399.339 308.327,399.481 C 324.543,399.625 337.59,412.903 337.448,429.119 C 337.304,445.336 324.026,458.381 307.809,458.239 C 291.593,458.097 278.546,444.819 278.688,428.602 Z" stroke-linejoin="round" stroke-width="0.263" marker-start="none" marker-end="none" stroke-miterlimit="79.8403193612775" fill-opacity="0.200000"/>
     <path d="M 293.343,404.164 L 298.319,404.164 L 298.319,416.292 L 283.322,416.292 L 283.321,414.878 C 282.501,416.406 281.815,418.019 281.278,419.701 L 281.278,432.204 L 333.83,432.204 L 333.83,417.076 C 333.173,415.553 332.39,414.1 331.493,412.73 L 331.493,416.098 L 316.496,416.098 L 316.496,403.97 L 322.431,403.97 C 321.437,403.368 320.403,402.826 319.334,402.351 L 296.755,402.351 C 295.573,402.877 294.433,403.483 293.343,404.164 Z M 315.197,404.359 L 315.197,416.486 L 300.2,416.486 L 300.2,404.359 L 315.197,404.359 Z M 315.003,418.132 L 315.003,430.26 L 300.006,430.26 L 300.006,418.132 L 315.003,418.132 Z M 331.493,418.132 L 331.493,430.26 L 316.496,430.26 L 316.496,418.132 L 331.493,418.132 Z M 298.513,418.227 L 298.513,430.355 L 283.516,430.355 L 283.516,418.227 L 298.513,418.227 Z" stroke-linejoin="miter" stroke-width="0.129" marker-start="none" marker-end="none" stroke-miterlimit="79.8403193612775" fill-opacity="0.200000"/>
     <rect x="318.17" y="419.602" width="11.91" height="9.659" stroke-width="0.129" stroke-linejoin="miter" stroke-miterlimit="79.8403193612775" fill-opacity="0.200000"/>
    </g>
    <mask id="TranspMask_7">
     <rect x="-10%" y="-10%" width="120%" height="120%" fill="#333333" stroke="none"/>
    </mask>
    <g id="Group_31" stroke="none" fill="#ffffff" mask="url(#TranspMask_7)">
     <path d="M 409.119,406.62 L 409.119,428.885 L 371.02,428.885 L 371.019,407.737 C 369.311,409.429 367.815,411.339 366.573,413.423 L 366.573,434.905 L 414.44,434.905 L 414.44,412.9 C 412.973,410.553 411.177,408.437 409.119,406.62 Z" stroke-linejoin="miter" stroke-linecap="round" stroke-width="0.263" stroke-opacity="0.200000" marker-start="none" marker-end="none" stroke-miterlimit="79.8403193612775"/>
     <path d="M 390.238,466.359 C 410.937,466.542 427.885,449.891 428.066,429.191 C 428.249,408.492 411.598,391.544 390.898,391.363 C 370.199,391.18 353.251,407.831 353.07,428.531 C 352.887,449.23 369.538,466.178 390.238,466.359 Z M 361.188,428.602 C 361.332,412.386 374.61,399.339 390.827,399.481 C 407.043,399.625 420.09,412.903 419.948,429.119 C 419.804,445.336 406.526,458.381 390.309,458.239 C 374.093,458.097 361.046,444.819 361.188,428.602 Z" stroke-linecap="round" stroke-linejoin="round" stroke-width="0.263" marker-start="none" marker-end="none" stroke-miterlimit="79.8403193612775"/>
     <text xml:space="preserve" transform="translate(377.983 402.275) scale(1 -1)"><tspan x="0" y="0" font-size="48" font-family="Wingdings"></tspan></text>
    </g>
    <mask id="TranspMask_8">
     <rect x="-10%" y="-10%" width="120%" height="120%" fill="#333333" stroke="none"/>
    </mask>
    <g id="Group_32" stroke-linecap="round" stroke="none" fill="#ffffff" mask="url(#TranspMask_8)">
     <path d="M 446.548,402.341 C 431.909,416.98 431.909,440.744 446.548,455.383 C 461.187,470.022 484.951,470.022 499.59,455.383 C 514.229,440.744 514.229,416.98 499.59,402.341 C 484.951,387.702 461.187,387.702 446.548,402.341 Z M 493.847,408.084 C 505.316,419.554 505.316,438.171 493.847,449.64 C 482.378,461.109 463.76,461.109 452.291,449.64 C 440.822,438.171 440.822,419.554 452.291,408.084 C 463.76,396.615 482.378,396.615 493.847,408.084 Z" stroke-linejoin="round" stroke-width="0.262" marker-start="none" marker-end="none" stroke-miterlimit="79.8403193612775"/>
     <g id="Group_33" stroke-linejoin="miter" stroke-opacity="0.200000" stroke-width="0.168" stroke-miterlimit="79.8403193612775">
      <rect x="466.649" y="403.226" width="12.316" height="11.58"/>
      <path d="M 485.463,410.711 L 479.135,418.346 L 472.807,425.981 L 466.478,418.347 L 460.15,410.712 L 472.806,410.711 L 485.463,410.711 Z" marker-start="none" marker-end="none"/>
      <rect x="460.29" y="426.603" width="25.259" height="5.136"/>
     </g>
    </g>
    <g id="Group_34" fill="#ffffff" stroke="none">
     <path d="M 529.048,402.341 C 514.409,416.98 514.409,440.744 529.048,455.383 C 543.687,470.022 567.451,470.022 582.09,455.383 C 596.729,440.744 596.729,416.98 582.09,402.341 C 567.451,387.702 543.687,387.702 529.048,402.341 Z M 576.347,408.084 C 587.816,419.554 587.816,438.171 576.347,449.64 C 564.878,461.109 546.26,461.109 534.791,449.64 C 523.322,438.171 523.322,419.554 534.791,408.084 C 546.26,396.615 564.878,396.615 576.347,408.084 Z" stroke-opacity="0.200000" stroke-linecap="round" stroke-linejoin="round" stroke-width="0.262" marker-start="none" marker-end="none" stroke-miterlimit="79.8403193612775" fill-opacity="0.200000"/>
     <mask id="TranspMask_9">
      <rect x="-10%" y="-10%" width="120%" height="120%" fill="#333333" stroke="none"/>
     </mask>
     <g id="Group_35" fill-rule="nonzero" mask="url(#TranspMask_9)">
      <g id="Group_36">
       <path d="M 545.883,402.41 L 545.885,408.043 L 544.138,408.043 L 544.136,403.094 C 541.614,404.179 539.214,405.632 537.016,407.455 L 537.017,412.612 C 537.017,418.432 540.266,421.344 546.757,421.341 L 564.824,421.341 C 571.272,421.344 574.497,418.432 574.497,412.612 L 574.497,407.455 C 572.3,405.632 569.899,404.179 567.377,403.094 L 567.377,408.043 L 565.63,408.043 L 565.63,402.41 C 559.258,400.143 552.257,400.143 545.883,402.41 Z M 554.627,412.765 L 560.424,412.765 L 560.424,411.202 C 560.424,410.729 560.808,410.345 561.282,410.345 L 562.018,410.345 L 562.018,411.224 L 563.202,411.224 L 563.202,410.345 L 563.828,410.345 C 564.301,410.345 564.686,410.729 564.686,411.202 L 564.686,415.369 C 564.686,415.605 564.493,415.798 564.257,415.798 L 554.577,415.798 C 553.932,417.533 552.26,418.77 550.302,418.77 C 547.785,418.77 545.741,416.726 545.741,414.209 C 545.741,411.693 547.785,409.65 550.302,409.65 C 552.312,409.65 554.022,410.955 554.627,412.765 Z M 550.249,425.373 C 548.727,427.432 547.966,429.762 547.966,432.359 C 547.966,434.91 548.716,437.091 550.216,438.907 C 551.716,440.719 553.541,441.627 555.689,441.627 C 557.794,441.627 559.608,440.719 561.132,438.907 C 562.653,437.091 563.414,434.91 563.414,432.359 C 563.414,429.762 562.653,427.432 561.132,425.373 C 559.608,423.313 557.794,422.284 555.689,422.284 C 553.585,422.284 551.772,423.313 550.249,425.373 Z" marker-start="none" marker-end="none"/>
      </g>
     </g>
    </g>
    <g id="Group_37" stroke="none" fill="#ffffff">
     <path d="M 637.738,466.359 C 658.437,466.542 675.385,449.891 675.566,429.191 C 675.749,408.492 659.098,391.544 638.398,391.363 C 617.699,391.18 600.751,407.831 600.57,428.531 C 600.387,449.23 617.038,466.178 637.738,466.359 Z M 608.688,428.602 C 608.832,412.386 622.11,399.339 638.327,399.481 C 654.543,399.625 667.59,412.903 667.448,429.119 C 667.304,445.336 654.026,458.381 637.809,458.239 C 621.593,458.097 608.546,444.819 608.688,428.602 Z" stroke-opacity="0.200000" stroke-linejoin="round" stroke-linecap="round" stroke-width="0.263" marker-start="none" marker-end="none" stroke-miterlimit="79.8403193612775" fill-opacity="0.200000"/>
     <mask id="TranspMask_10">
      <rect x="-10%" y="-10%" width="120%" height="120%" fill="#333333" stroke="none"/>
     </mask>
     <g id="Group_38" mask="url(#TranspMask_10)">
      <path d="M 626.249,438.834 L 626.187,432.443 L 625.968,432.443 C 622.111,432.443 618.978,429.31 618.978,425.452 L 618.978,413.289 C 618.978,409.429 622.111,406.297 625.968,406.297 L 650.577,406.297 C 654.435,406.297 657.568,409.429 657.568,413.289 L 657.568,425.452 C 657.568,429.31 654.435,432.443 650.577,432.443 L 633.937,432.443 L 629.743,438.93 C 627.655,440.184 626.804,439.715 626.249,438.834 Z M 628.346,436.887 L 631.698,431.681 L 632.706,430.049 L 649.691,430.049 C 652.795,430.049 655.315,427.529 655.315,424.426 L 655.315,414.099 C 655.315,410.996 652.795,408.477 649.691,408.477 L 626.807,408.477 C 623.705,408.477 621.186,410.996 621.186,414.099 L 621.186,424.426 C 621.186,427.529 623.705,430.049 626.807,430.049 L 628.345,430.049 L 628.344,430.947 L 628.346,430.947 L 628.345,432.339 C 628.346,432.374 628.35,432.409 628.358,432.443 L 628.346,432.443 L 628.346,436.887 Z" stroke-linejoin="miter" stroke-linecap="round" stroke-width="0.069" marker-start="none" marker-end="none" stroke-miterlimit="79.8403193612775"/>
      <text xml:space="preserve" transform="translate(624.763 414.432) scale(1 -1)" font-size="15.609" font-weight="bold" font-family="Verdana"><tspan x="0" y="0">A</tspan></text>
      <text xml:space="preserve" transform="translate(638.037 414.257) scale(1 -1)" font-family="KaiTi"><tspan x="0" y="0" font-size="14.896">㕊</tspan></text>
     </g>
    </g>
    <rect x="13.537" y="470.645" width="61.631" height="21.999" stroke="#000000" stroke-linecap="round" fill="#ffffff" stroke-width="0.5" stroke-linejoin="miter" stroke-miterlimit="79.8403193612775"/>
    <g id="Group_39" fill="#ffffff" stroke="none">
     <path d="M 60.238,466.359 C 80.937,466.539 97.886,449.89 98.066,429.191 C 98.246,408.492 81.597,391.543 60.898,391.363 C 40.199,391.183 23.25,407.832 23.07,428.531 C 22.89,449.23 39.539,466.179 60.238,466.359 Z M 31.19,428.601 C 31.33,412.382 44.609,399.343 60.828,399.483 C 77.047,399.623 90.086,412.902 89.946,429.121 C 89.806,445.33 76.527,458.379 60.308,458.239 C 44.089,458.099 31.05,444.82 31.19,428.601 Z" stroke-opacity="0.200000" stroke-linejoin="round" stroke-linecap="round" stroke-width="0.26" marker-start="none" marker-end="none" stroke-miterlimit="79.8403193612775" fill-opacity="0.200000"/>
     <mask id="TranspMask_11">
      <rect x="-10%" y="-10%" width="120%" height="120%" fill="#333333" stroke="none"/>
     </mask>
     <g id="Group_40" fill-rule="nonzero" mask="url(#TranspMask_11)">
      <g id="Group_41">
       <path d="M 50.879,402.652 L 50.879,408.282 L 49.139,408.282 L 49.139,403.332 C 46.619,404.422 44.209,405.872 42.019,407.692 L 42.019,412.852 C 42.019,418.671 45.269,421.581 51.759,421.581 L 69.827,421.581 C 76.267,421.581 79.497,418.671 79.497,412.852 L 79.497,407.692 C 77.297,405.872 74.897,404.422 72.377,403.332 L 72.377,408.282 L 70.628,408.282 L 70.628,402.652 C 64.258,400.383 57.258,400.383 50.879,402.652 Z M 55.248,425.611 C 53.728,427.671 52.969,430.001 52.969,432.601 C 52.969,435.151 53.718,437.33 55.218,439.151 C 56.718,440.96 58.538,441.87 60.688,441.87 C 62.788,441.87 64.608,440.96 66.128,439.151 C 67.648,437.33 68.418,435.151 68.418,432.601 C 68.418,430.001 67.648,427.671 66.128,425.611 C 64.608,423.551 62.788,422.521 60.688,422.521 C 58.588,422.521 56.768,423.551 55.248,425.611 Z" marker-start="none" marker-end="none"/>
      </g>
     </g>
    </g>
    <rect x="13.57" y="256.863" width="678" height="113.999" fill="#004040" stroke-linecap="round" stroke="#000000" stroke-width="0.5" stroke-linejoin="miter" stroke-miterlimit="79.8403193612775"/>
    <text xml:space="preserve" transform="translate(21.537 477.862) scale(1 -1)" font-size="10" font-family="Arial" stroke-linejoin="round" stroke-linecap="round" stroke="none" stroke-width="0.25" fill="#000000" stroke-miterlimit="79.8403193612775"><tspan x="0" y="0">lightening</tspan></text>
    <rect x="13.537" y="379.145" width="678" height="113.999" stroke-linecap="round" stroke="#000000" stroke-width="0.5" stroke-linejoin="miter" stroke-miterlimit="79.8403193612775"/>
    <g id="Group_42" fill="#ffffff" stroke="none">
     <path d="M 116.581,280.059 C 101.942,294.698 101.942,318.462 116.581,333.101 C 131.22,347.74 154.984,347.74 169.623,333.101 C 184.262,318.462 184.262,294.698 169.623,280.059 C 154.984,265.42 131.22,265.42 116.581,280.059 Z M 163.88,285.802 C 175.349,297.272 175.349,315.889 163.88,327.358 C 152.411,338.827 133.793,338.827 122.324,327.358 C 110.855,315.889 110.855,297.272 122.324,285.802 C 133.793,274.333 152.411,274.333 163.88,285.802 Z" stroke-opacity="0.200000" stroke-linejoin="round" stroke-linecap="round" stroke-width="0.262" marker-start="none" marker-end="none" stroke-miterlimit="79.8403193612775" fill-opacity="0.200000"/>
     <mask id="TranspMask_12">
      <rect x="-10%" y="-10%" width="120%" height="120%" fill="#333333" stroke="none"/>
     </mask>
     <g id="Group_43" fill-rule="nonzero" mask="url(#TranspMask_12)">
      <g id="Group_44">
       <g id="Group_45">
        <path d="M 134.641,279.852 L 134.641,290.818 L 133.445,290.818 L 133.444,280.234 C 129.348,281.64 125.502,283.976 122.236,287.242 C 121.402,288.077 120.628,288.948 119.915,289.853 L 119.916,290.818 L 119.187,290.818 C 117.514,293.13 116.219,295.631 115.302,298.236 C 116.41,299.365 118.148,299.929 120.514,299.929 L 132.893,299.929 C 137.31,299.931 139.519,297.936 139.519,293.947 L 139.519,278.848 C 137.873,279.043 136.241,279.378 134.641,279.852 Z M 122.907,302.691 C 121.864,304.102 121.342,305.698 121.342,307.476 C 121.342,309.225 121.856,310.72 122.884,311.963 C 123.912,313.205 125.162,313.827 126.634,313.827 C 128.076,313.827 129.319,313.205 130.362,311.963 C 131.406,310.72 131.926,309.225 131.926,307.476 C 131.926,305.698 131.406,304.102 130.362,302.691 C 129.319,301.28 128.076,300.574 126.634,300.574 C 125.192,300.574 123.95,301.28 122.907,302.691 Z" marker-start="none" marker-end="none"/>
       </g>
      </g>
      <g id="Group_46">
       <g id="Group_47">
        <path d="M 146.508,278.847 L 146.508,293.947 C 146.508,297.936 148.734,299.931 153.182,299.929 L 165.559,299.929 C 167.905,299.929 169.628,299.368 170.728,298.243 C 169.811,295.636 168.516,293.132 166.841,290.818 L 166.112,290.818 L 166.112,289.852 C 165.4,288.948 164.626,288.077 163.792,287.242 C 160.525,283.975 156.679,281.639 152.583,280.234 L 152.583,290.818 L 151.387,290.818 L 151.387,279.852 C 149.787,279.378 148.154,279.043 146.508,278.847 Z M 155.574,302.691 C 154.531,304.102 154.01,305.698 154.01,307.476 C 154.01,309.225 154.523,310.72 155.552,311.963 C 156.579,313.205 157.829,313.827 159.302,313.827 C 160.743,313.827 161.986,313.205 163.029,311.963 C 164.073,310.72 164.594,309.225 164.594,307.476 C 164.594,305.698 164.073,304.102 163.029,302.691 C 161.986,301.28 160.743,300.574 159.302,300.574 C 157.86,300.574 156.617,301.28 155.574,302.691 Z" marker-start="none" marker-end="none"/>
       </g>
      </g>
      <g id="Group_48">
       <g id="Group_49">
        <path d="M 135.362,279.648 L 135.362,291.236 L 133.939,291.236 L 133.938,280.069 C 131.934,280.717 129.986,281.586 128.132,282.676 L 128.133,294.961 C 128.133,299.707 130.781,302.082 136.074,302.08 L 150.807,302.08 C 156.065,302.082 158.694,299.707 158.694,294.961 L 158.694,283.163 C 156.847,281.996 154.898,281.055 152.888,280.34 L 152.888,291.236 L 151.464,291.236 L 151.464,279.875 C 146.225,278.308 140.634,278.233 135.362,279.648 Z M 138.922,305.367 C 137.681,307.046 137.061,308.945 137.061,311.063 C 137.061,313.144 137.671,314.923 138.896,316.403 C 140.118,317.881 141.606,318.621 143.359,318.621 C 145.074,318.621 146.554,317.881 147.796,316.403 C 149.037,314.923 149.657,313.144 149.657,311.063 C 149.657,308.945 149.037,307.046 147.796,305.367 C 146.554,303.688 145.074,302.848 143.359,302.848 C 141.642,302.848 140.164,303.688 138.922,305.367 Z" marker-start="none" marker-end="none"/>
       </g>
      </g>
     </g>
    </g>
    <g id="Group_50" fill="#ffffff" stroke-linejoin="round" stroke-linecap="round" stroke-opacity="0.200000" stroke="none" fill-opacity="0.200000">
     <path d="M 199.081,280.059 C 184.442,294.698 184.442,318.462 199.081,333.101 C 213.72,347.74 237.484,347.74 252.123,333.101 C 266.762,318.462 266.762,294.698 252.123,280.059 C 237.484,265.42 213.72,265.42 199.081,280.059 Z M 246.38,285.802 C 257.849,297.272 257.849,315.889 246.38,327.358 C 234.911,338.827 216.293,338.827 204.824,327.358 C 193.355,315.889 193.355,297.272 204.824,285.802 C 216.293,274.333 234.911,274.333 246.38,285.802 Z" stroke-width="0.262" marker-start="none" marker-end="none" stroke-miterlimit="79.8403193612775" fill-opacity="0.200000"/>
     <path d="M 224.395,281.415 L 224.395,284.043 C 223.013,284.164 221.892,284.383 221.032,284.704 C 220.172,285.023 219.429,285.466 218.804,286.032 C 218.18,286.598 217.698,287.207 217.359,287.861 C 217.021,288.515 216.767,289.305 216.598,290.232 L 222.294,290.886 C 222.463,289.967 222.691,289.305 222.978,288.897 C 223.265,288.489 223.737,288.128 224.395,287.812 L 224.395,292.722 C 222.496,293.241 221.15,293.691 220.356,294.071 C 219.561,294.451 218.872,295.06 218.29,295.9 C 217.707,296.738 217.416,297.761 217.416,298.966 C 217.416,300.616 218.001,301.996 219.171,303.104 C 220.341,304.211 222.082,304.826 224.395,304.946 L 224.395,306.323 L 226.453,306.323 L 226.453,304.946 C 228.558,304.817 230.168,304.325 231.282,303.472 C 232.396,302.619 233.122,301.451 233.46,299.967 L 228.215,299.147 C 227.952,299.805 227.715,300.262 227.504,300.517 C 227.292,300.772 226.942,301.029 226.453,301.289 L 226.453,297.27 C 229.31,296.518 231.218,295.726 232.178,294.891 C 233.447,293.769 234.08,292.346 234.08,290.622 C 234.08,289.611 233.853,288.684 233.397,287.84 C 232.941,286.996 232.359,286.292 231.649,285.726 C 230.94,285.16 230.185,284.75 229.386,284.495 C 228.587,284.24 227.609,284.09 226.453,284.043 L 226.453,281.415 L 224.395,281.415 Z M 204.562,287.242 C 203.332,288.472 202.233,289.784 201.267,291.161 L 201.267,312.712 L 249.413,312.712 L 249.413,291.162 C 248.446,289.785 247.348,288.473 246.118,287.242 C 245.666,286.791 245.204,286.357 244.731,285.941 L 244.731,307.809 L 205.95,307.809 L 205.949,285.941 C 205.477,286.357 205.013,286.79 204.562,287.242 Z M 228.208,288.542 C 228.579,288.946 228.765,289.397 228.765,289.898 C 228.765,290.334 228.608,290.735 228.293,291.102 C 227.978,291.468 227.365,291.808 226.453,292.124 L 226.453,287.673 C 227.252,287.849 227.838,288.139 228.208,288.542 Z M 224.395,297.798 L 224.395,301.358 C 223.793,301.164 223.375,300.922 223.14,300.635 C 222.905,300.348 222.788,300.009 222.788,299.62 C 222.788,299.212 222.908,298.857 223.147,298.556 C 223.386,298.255 223.802,298.002 224.395,297.798 Z" stroke-width="0.205" marker-start="none" marker-end="none" stroke-miterlimit="79.8403193612775" fill-opacity="0.200000"/>
    </g>
    <g id="Group_51" fill="#ffffff" stroke-linecap="round" stroke-opacity="0.200000" stroke="none" fill-opacity="0.200000">
     <path d="M 307.771,344.077 C 328.47,344.26 345.418,327.609 345.599,306.909 C 345.782,286.21 329.131,269.262 308.431,269.081 C 287.732,268.898 270.784,285.549 270.603,306.249 C 270.42,326.948 287.071,343.896 307.771,344.077 Z M 278.721,306.32 C 278.865,290.104 292.143,277.057 308.36,277.199 C 324.576,277.343 337.623,290.621 337.481,306.837 C 337.337,323.054 324.059,336.099 307.842,335.957 C 291.626,335.815 278.579,322.537 278.721,306.32 Z" stroke-linejoin="round" stroke-width="0.263" marker-start="none" marker-end="none" stroke-miterlimit="79.8403193612775" fill-opacity="0.200000"/>
     <path d="M 293.376,281.882 L 298.352,281.882 L 298.352,294.01 L 283.355,294.01 L 283.354,292.596 C 282.534,294.124 281.848,295.737 281.311,297.419 L 281.311,309.922 L 333.863,309.922 L 333.863,294.794 C 333.206,293.271 332.423,291.818 331.526,290.448 L 331.526,293.816 L 316.529,293.816 L 316.529,281.688 L 322.464,281.688 C 321.47,281.086 320.436,280.544 319.367,280.069 L 296.788,280.069 C 295.606,280.595 294.466,281.201 293.376,281.882 Z M 315.23,282.077 L 315.23,294.204 L 300.233,294.204 L 300.233,282.077 L 315.23,282.077 Z M 315.036,295.85 L 315.036,307.978 L 300.039,307.978 L 300.039,295.85 L 315.036,295.85 Z M 331.526,295.85 L 331.526,307.978 L 316.529,307.978 L 316.529,295.85 L 331.526,295.85 Z M 298.546,295.945 L 298.546,308.073 L 283.549,308.073 L 283.549,295.945 L 298.546,295.945 Z" stroke-linejoin="miter" stroke-width="0.129" marker-start="none" marker-end="none" stroke-miterlimit="79.8403193612775" fill-opacity="0.200000"/>
     <rect x="318.203" y="297.32" width="11.91" height="9.659" stroke-width="0.129" stroke-linejoin="miter" stroke-miterlimit="79.8403193612775" fill-opacity="0.200000"/>
    </g>
    <mask id="TranspMask_13">
     <rect x="-10%" y="-10%" width="120%" height="120%" fill="#333333" stroke="none"/>
    </mask>
    <g id="Group_52" stroke="none" fill="#ffffff" mask="url(#TranspMask_13)">
     <path d="M 409.152,284.338 L 409.152,306.603 L 371.053,306.603 L 371.052,285.455 C 369.344,287.147 367.848,289.057 366.606,291.141 L 366.606,312.623 L 414.473,312.623 L 414.473,290.618 C 413.006,288.271 411.21,286.155 409.152,284.338 Z" stroke-linejoin="miter" stroke-linecap="round" stroke-width="0.263" stroke-opacity="0.200000" marker-start="none" marker-end="none" stroke-miterlimit="79.8403193612775"/>
     <path d="M 390.271,344.077 C 410.97,344.26 427.918,327.609 428.099,306.909 C 428.282,286.21 411.631,269.262 390.931,269.081 C 370.232,268.898 353.284,285.549 353.103,306.249 C 352.92,326.948 369.571,343.896 390.271,344.077 Z M 361.221,306.32 C 361.365,290.104 374.643,277.057 390.86,277.199 C 407.076,277.343 420.123,290.621 419.981,306.837 C 419.837,323.054 406.559,336.099 390.342,335.957 C 374.126,335.815 361.079,322.537 361.221,306.32 Z" stroke-linecap="round" stroke-linejoin="round" stroke-width="0.263" marker-start="none" marker-end="none" stroke-miterlimit="79.8403193612775"/>
     <text xml:space="preserve" transform="translate(378.016 279.993) scale(1 -1)"><tspan x="0" y="0" font-size="48" font-family="Wingdings"></tspan></text>
    </g>
    <mask id="TranspMask_14">
     <rect x="-10%" y="-10%" width="120%" height="120%" fill="#333333" stroke="none"/>
    </mask>
    <g id="Group_53" stroke-linecap="round" stroke="none" fill="#ffffff" mask="url(#TranspMask_14)">
     <path d="M 446.581,280.059 C 431.942,294.698 431.942,318.462 446.581,333.101 C 461.22,347.74 484.984,347.74 499.623,333.101 C 514.262,318.462 514.262,294.698 499.623,280.059 C 484.984,265.42 461.22,265.42 446.581,280.059 Z M 493.88,285.802 C 505.349,297.272 505.349,315.889 493.88,327.358 C 482.411,338.827 463.793,338.827 452.324,327.358 C 440.855,315.889 440.855,297.272 452.324,285.802 C 463.793,274.333 482.411,274.333 493.88,285.802 Z" stroke-linejoin="round" stroke-width="0.262" marker-start="none" marker-end="none" stroke-miterlimit="79.8403193612775"/>
     <g id="Group_54" stroke-linejoin="miter" stroke-opacity="0.200000" stroke-width="0.168" stroke-miterlimit="79.8403193612775">
      <rect x="466.682" y="280.944" width="12.316" height="11.58"/>
      <path d="M 485.496,288.429 L 479.168,296.064 L 472.84,303.699 L 466.511,296.065 L 460.183,288.43 L 472.839,288.429 L 485.496,288.429 Z" marker-start="none" marker-end="none"/>
      <rect x="460.323" y="304.321" width="25.259" height="5.136"/>
     </g>
    </g>
    <g id="Group_55" fill="#ffffff" stroke="none">
     <path d="M 529.081,280.059 C 514.442,294.698 514.442,318.462 529.081,333.101 C 543.72,347.74 567.484,347.74 582.123,333.101 C 596.762,318.462 596.762,294.698 582.123,280.059 C 567.484,265.42 543.72,265.42 529.081,280.059 Z M 576.38,285.802 C 587.849,297.272 587.849,315.889 576.38,327.358 C 564.911,338.827 546.293,338.827 534.824,327.358 C 523.355,315.889 523.355,297.272 534.824,285.802 C 546.293,274.333 564.911,274.333 576.38,285.802 Z" stroke-opacity="0.200000" stroke-linecap="round" stroke-linejoin="round" stroke-width="0.262" marker-start="none" marker-end="none" stroke-miterlimit="79.8403193612775" fill-opacity="0.200000"/>
     <mask id="TranspMask_15">
      <rect x="-10%" y="-10%" width="120%" height="120%" fill="#333333" stroke="none"/>
     </mask>
     <g id="Group_56" fill-rule="nonzero" mask="url(#TranspMask_15)">
      <g id="Group_57">
       <path d="M 545.916,280.128 L 545.918,285.761 L 544.171,285.761 L 544.169,280.812 C 541.647,281.897 539.247,283.35 537.049,285.173 L 537.05,290.33 C 537.05,296.15 540.299,299.062 546.79,299.059 L 564.857,299.059 C 571.305,299.062 574.53,296.15 574.53,290.33 L 574.53,285.173 C 572.333,283.35 569.932,281.897 567.41,280.812 L 567.41,285.761 L 565.663,285.761 L 565.663,280.128 C 559.291,277.861 552.29,277.861 545.916,280.128 Z M 554.66,290.483 L 560.457,290.483 L 560.457,288.92 C 560.457,288.447 560.841,288.063 561.315,288.063 L 562.051,288.063 L 562.051,288.942 L 563.235,288.942 L 563.235,288.063 L 563.861,288.063 C 564.334,288.063 564.719,288.447 564.719,288.92 L 564.719,293.087 C 564.719,293.323 564.526,293.516 564.29,293.516 L 554.61,293.516 C 553.965,295.251 552.293,296.488 550.335,296.488 C 547.818,296.488 545.774,294.444 545.774,291.927 C 545.774,289.411 547.818,287.368 550.335,287.368 C 552.345,287.368 554.055,288.673 554.66,290.483 Z M 550.282,303.091 C 548.76,305.15 547.999,307.48 547.999,310.077 C 547.999,312.628 548.749,314.809 550.249,316.625 C 551.749,318.437 553.574,319.345 555.722,319.345 C 557.827,319.345 559.641,318.437 561.165,316.625 C 562.686,314.809 563.447,312.628 563.447,310.077 C 563.447,307.48 562.686,305.15 561.165,303.091 C 559.641,301.031 557.827,300.002 555.722,300.002 C 553.618,300.002 551.805,301.031 550.282,303.091 Z" marker-start="none" marker-end="none"/>
      </g>
     </g>
    </g>
    <g id="Group_58" stroke="none" fill="#ffffff">
     <path d="M 637.771,344.077 C 658.47,344.26 675.418,327.609 675.599,306.909 C 675.782,286.21 659.131,269.262 638.431,269.081 C 617.732,268.898 600.784,285.549 600.603,306.249 C 600.42,326.948 617.071,343.896 637.771,344.077 Z M 608.721,306.32 C 608.865,290.104 622.143,277.057 638.36,277.199 C 654.576,277.343 667.623,290.621 667.481,306.837 C 667.337,323.054 654.059,336.099 637.842,335.957 C 621.626,335.815 608.579,322.537 608.721,306.32 Z" stroke-opacity="0.200000" stroke-linejoin="round" stroke-linecap="round" stroke-width="0.263" marker-start="none" marker-end="none" stroke-miterlimit="79.8403193612775" fill-opacity="0.200000"/>
     <mask id="TranspMask_16">
      <rect x="-10%" y="-10%" width="120%" height="120%" fill="#333333" stroke="none"/>
     </mask>
     <g id="Group_59" mask="url(#TranspMask_16)">
      <path d="M 626.282,316.552 L 626.22,310.161 L 626.001,310.161 C 622.144,310.161 619.011,307.028 619.011,303.17 L 619.011,291.007 C 619.011,287.147 622.144,284.015 626.001,284.015 L 650.61,284.015 C 654.468,284.015 657.601,287.147 657.601,291.007 L 657.601,303.17 C 657.601,307.028 654.468,310.161 650.61,310.161 L 633.97,310.161 L 629.776,316.648 C 627.688,317.902 626.837,317.433 626.282,316.552 Z M 628.379,314.605 L 631.731,309.399 L 632.739,307.767 L 649.724,307.767 C 652.828,307.767 655.348,305.247 655.348,302.144 L 655.348,291.817 C 655.348,288.714 652.828,286.195 649.724,286.195 L 626.84,286.195 C 623.738,286.195 621.219,288.714 621.219,291.817 L 621.219,302.144 C 621.219,305.247 623.738,307.767 626.84,307.767 L 628.378,307.767 L 628.377,308.665 L 628.379,308.665 L 628.378,310.057 C 628.379,310.092 628.383,310.127 628.391,310.161 L 628.379,310.161 L 628.379,314.605 Z" stroke-linejoin="miter" stroke-linecap="round" stroke-width="0.069" marker-start="none" marker-end="none" stroke-miterlimit="79.8403193612775"/>
      <text xml:space="preserve" transform="translate(624.796 292.15) scale(1 -1)" font-size="15.609" font-weight="bold" font-family="Verdana"><tspan x="0" y="0">A</tspan></text>
      <text xml:space="preserve" transform="translate(638.07 291.975) scale(1 -1)" font-family="KaiTi"><tspan x="0" y="0" font-size="14.896">㕊</tspan></text>
     </g>
    </g>
    <rect x="13.571" y="348.363" width="99.597" height="21.999" stroke="#000000" stroke-linecap="round" fill="#ffffff" stroke-width="0.5" stroke-linejoin="miter" stroke-miterlimit="79.8403193612775"/>
    <g id="Group_60" fill="#ffffff" stroke="none">
     <path d="M 60.271,344.077 C 80.97,344.257 97.919,327.608 98.099,306.909 C 98.279,286.21 81.63,269.261 60.931,269.081 C 40.232,268.901 23.283,285.55 23.103,306.249 C 22.923,326.948 39.572,343.897 60.271,344.077 Z M 31.223,306.319 C 31.363,290.1 44.642,277.061 60.861,277.201 C 77.08,277.341 90.119,290.62 89.979,306.839 C 89.839,323.048 76.56,336.097 60.341,335.957 C 44.122,335.817 31.083,322.538 31.223,306.319 Z" stroke-opacity="0.200000" stroke-linejoin="round" stroke-linecap="round" stroke-width="0.26" marker-start="none" marker-end="none" stroke-miterlimit="79.8403193612775" fill-opacity="0.200000"/>
     <mask id="TranspMask_17">
      <rect x="-10%" y="-10%" width="120%" height="120%" fill="#333333" stroke="none"/>
     </mask>
     <g id="Group_61" fill-rule="nonzero" mask="url(#TranspMask_17)">
      <g id="Group_62">
       <path d="M 50.912,280.37 L 50.912,286 L 49.172,286 L 49.172,281.05 C 46.652,282.14 44.242,283.59 42.052,285.41 L 42.052,290.57 C 42.052,296.389 45.302,299.299 51.792,299.299 L 69.86,299.299 C 76.3,299.299 79.53,296.389 79.53,290.57 L 79.53,285.41 C 77.33,283.59 74.93,282.14 72.41,281.05 L 72.41,286 L 70.661,286 L 70.661,280.37 C 64.291,278.101 57.291,278.101 50.912,280.37 Z M 55.281,303.329 C 53.761,305.389 53.002,307.719 53.002,310.319 C 53.002,312.869 53.751,315.048 55.251,316.869 C 56.751,318.678 58.571,319.588 60.721,319.588 C 62.821,319.588 64.641,318.678 66.161,316.869 C 67.681,315.048 68.451,312.869 68.451,310.319 C 68.451,307.719 67.681,305.389 66.161,303.329 C 64.641,301.269 62.821,300.239 60.721,300.239 C 58.621,300.239 56.801,301.269 55.281,303.329 Z" marker-start="none" marker-end="none"/>
      </g>
     </g>
    </g>
    <text xml:space="preserve" transform="translate(21.57 355.58) scale(1 -1)" font-size="10" font-family="Arial" stroke-linejoin="round" stroke-linecap="round" stroke="none" stroke-width="0.25" fill="#000000" stroke-miterlimit="79.8403193612775"><tspan x="0" y="0">lightening example</tspan></text>
    <rect x="13.57" y="228.863" width="61.631" height="21.999" stroke="#000000" stroke-linecap="round" fill="#ffffff" stroke-width="0.5" stroke-linejoin="miter" stroke-miterlimit="79.8403193612775"/>
    <text xml:space="preserve" transform="translate(21.57 236.08) scale(1 -1)" font-size="10" font-family="Arial" stroke-linejoin="round" stroke-linecap="round" stroke="none" stroke-width="0.25" fill="#000000" stroke-miterlimit="79.8403193612775"><tspan x="0" y="0">darkening</tspan></text>
    <rect x="13.57" y="137.363" width="678" height="113.999" stroke-linecap="round" stroke="#000000" stroke-width="0.5" stroke-linejoin="miter" stroke-miterlimit="79.8403193612775"/>
    <g id="Group_63" stroke="none">
     <path d="M 58.919,102.971 C 79.618,103.154 96.566,86.503 96.747,65.803 C 96.93,45.104 80.279,28.156 59.579,27.975 C 38.88,27.792 21.932,44.443 21.751,65.143 C 21.568,85.842 38.219,102.79 58.919,102.971 Z M 29.869,65.214 C 30.013,48.998 43.291,35.951 59.508,36.093 C 75.724,36.237 88.771,49.515 88.629,65.731 C 88.485,81.948 75.207,94.993 58.99,94.851 C 42.774,94.709 29.727,81.431 29.869,65.214 Z" stroke-opacity="0.200000" stroke-linejoin="round" stroke-linecap="round" stroke-width="0.263" fill="#000000" marker-start="none" marker-end="none" stroke-miterlimit="79.8403193612775" fill-opacity="0.200000"/>
     <mask id="TranspMask_18">
      <rect x="-10%" y="-10%" width="120%" height="120%" fill="#333333" stroke="none"/>
     </mask>
     <g id="Group_64" fill-rule="nonzero" fill="#000000" mask="url(#TranspMask_18)">
      <g id="Group_65">
       <path d="M 49.563,39.262 L 49.565,44.895 L 47.818,44.895 L 47.816,39.946 C 45.294,41.031 42.894,42.484 40.696,44.307 L 40.697,49.464 C 40.697,55.284 43.946,58.196 50.437,58.193 L 68.504,58.193 C 74.952,58.196 78.177,55.284 78.177,49.464 L 78.177,44.307 C 75.98,42.484 73.579,41.031 71.057,39.946 L 71.057,44.895 L 69.31,44.895 L 69.31,39.262 C 62.938,36.995 55.937,36.995 49.563,39.262 Z M 53.929,62.225 C 52.407,64.284 51.646,66.614 51.646,69.211 C 51.646,71.762 52.396,73.943 53.896,75.759 C 55.396,77.571 57.221,78.479 59.369,78.479 C 61.474,78.479 63.288,77.571 64.812,75.759 C 66.333,73.943 67.094,71.762 67.094,69.211 C 67.094,66.614 66.333,64.284 64.812,62.225 C 63.288,60.165 61.474,59.136 59.369,59.136 C 57.265,59.136 55.452,60.165 53.929,62.225 Z" marker-start="none" marker-end="none"/>
      </g>
     </g>
    </g>
    <g id="Group_66" stroke="none" fill="#000000">
     <path d="M 115.229,38.947 C 100.59,53.586 100.59,77.35 115.229,91.989 C 129.868,106.628 153.632,106.628 168.271,91.989 C 182.91,77.35 182.91,53.586 168.271,38.947 C 153.632,24.308 129.868,24.308 115.229,38.947 Z M 162.528,44.69 C 173.997,56.16 173.997,74.777 162.528,86.246 C 151.059,97.715 132.441,97.715 120.972,86.246 C 109.503,74.777 109.503,56.16 120.972,44.69 C 132.441,33.221 151.059,33.221 162.528,44.69 Z" stroke-opacity="0.200000" stroke-linejoin="round" stroke-linecap="round" stroke-width="0.262" marker-start="none" marker-end="none" stroke-miterlimit="79.8403193612775" fill-opacity="0.200000"/>
     <mask id="TranspMask_19">
      <rect x="-10%" y="-10%" width="120%" height="120%" fill="#333333" stroke="none"/>
     </mask>
     <g id="Group_67" fill-rule="nonzero" mask="url(#TranspMask_19)">
      <g id="Group_68">
       <g id="Group_69">
        <path d="M 133.289,38.74 L 133.289,49.706 L 132.093,49.706 L 132.092,39.122 C 127.996,40.528 124.15,42.864 120.884,46.13 C 120.05,46.965 119.276,47.836 118.563,48.741 L 118.564,49.706 L 117.835,49.706 C 116.162,52.018 114.867,54.519 113.95,57.124 C 115.058,58.253 116.796,58.817 119.162,58.817 L 131.541,58.817 C 135.958,58.819 138.167,56.824 138.167,52.835 L 138.167,37.736 C 136.521,37.931 134.889,38.266 133.289,38.74 Z M 121.555,61.579 C 120.512,62.99 119.99,64.586 119.99,66.364 C 119.99,68.113 120.504,69.608 121.532,70.851 C 122.56,72.093 123.81,72.715 125.282,72.715 C 126.724,72.715 127.967,72.093 129.01,70.851 C 130.054,69.608 130.574,68.113 130.574,66.364 C 130.574,64.586 130.054,62.99 129.01,61.579 C 127.967,60.168 126.724,59.462 125.282,59.462 C 123.84,59.462 122.598,60.168 121.555,61.579 Z" marker-start="none" marker-end="none"/>
       </g>
      </g>
      <g id="Group_70">
       <g id="Group_71">
        <path d="M 145.156,37.735 L 145.156,52.835 C 145.156,56.824 147.382,58.819 151.83,58.817 L 164.207,58.817 C 166.553,58.817 168.276,58.256 169.376,57.131 C 168.459,54.524 167.164,52.02 165.489,49.706 L 164.76,49.706 L 164.76,48.74 C 164.048,47.836 163.274,46.965 162.44,46.13 C 159.173,42.863 155.327,40.527 151.231,39.122 L 151.231,49.706 L 150.035,49.706 L 150.035,38.74 C 148.435,38.266 146.802,37.931 145.156,37.735 Z M 154.222,61.579 C 153.179,62.99 152.658,64.586 152.658,66.364 C 152.658,68.113 153.171,69.608 154.2,70.851 C 155.227,72.093 156.477,72.715 157.95,72.715 C 159.391,72.715 160.634,72.093 161.677,70.851 C 162.721,69.608 163.242,68.113 163.242,66.364 C 163.242,64.586 162.721,62.99 161.677,61.579 C 160.634,60.168 159.391,59.462 157.95,59.462 C 156.508,59.462 155.265,60.168 154.222,61.579 Z" marker-start="none" marker-end="none"/>
       </g>
      </g>
      <g id="Group_72">
       <g id="Group_73">
        <path d="M 134.01,38.536 L 134.01,50.124 L 132.587,50.124 L 132.586,38.957 C 130.582,39.605 128.634,40.474 126.78,41.564 L 126.781,53.849 C 126.781,58.595 129.429,60.97 134.722,60.968 L 149.455,60.968 C 154.713,60.97 157.342,58.595 157.342,53.849 L 157.342,42.051 C 155.495,40.884 153.546,39.943 151.536,39.228 L 151.536,50.124 L 150.112,50.124 L 150.112,38.763 C 144.873,37.196 139.282,37.121 134.01,38.536 Z M 137.57,64.255 C 136.329,65.934 135.709,67.833 135.709,69.951 C 135.709,72.032 136.319,73.811 137.544,75.291 C 138.766,76.769 140.254,77.509 142.007,77.509 C 143.722,77.509 145.202,76.769 146.444,75.291 C 147.685,73.811 148.305,72.032 148.305,69.951 C 148.305,67.833 147.685,65.934 146.444,64.255 C 145.202,62.576 143.722,61.736 142.007,61.736 C 140.29,61.736 138.812,62.576 137.57,64.255 Z" marker-start="none" marker-end="none"/>
       </g>
      </g>
     </g>
    </g>
    <g id="Group_74" stroke-linejoin="round" stroke-linecap="round" stroke-opacity="0.200000" stroke="none" fill="#000000" fill-opacity="0.200000">
     <path d="M 197.729,38.947 C 183.09,53.586 183.09,77.35 197.729,91.989 C 212.368,106.628 236.132,106.628 250.771,91.989 C 265.41,77.35 265.41,53.586 250.771,38.947 C 236.132,24.308 212.368,24.308 197.729,38.947 Z M 245.028,44.69 C 256.497,56.16 256.497,74.777 245.028,86.246 C 233.559,97.715 214.941,97.715 203.472,86.246 C 192.003,74.777 192.003,56.16 203.472,44.69 C 214.941,33.221 233.559,33.221 245.028,44.69 Z" stroke-width="0.262" marker-start="none" marker-end="none" stroke-miterlimit="79.8403193612775" fill-opacity="0.200000"/>
     <path d="M 223.043,40.303 L 223.043,42.931 C 221.661,43.052 220.54,43.271 219.68,43.592 C 218.82,43.911 218.077,44.354 217.452,44.92 C 216.828,45.486 216.346,46.095 216.007,46.749 C 215.669,47.403 215.415,48.193 215.246,49.12 L 220.942,49.774 C 221.111,48.855 221.339,48.193 221.626,47.785 C 221.913,47.377 222.385,47.016 223.043,46.7 L 223.043,51.61 C 221.144,52.129 219.798,52.579 219.004,52.959 C 218.209,53.339 217.52,53.948 216.938,54.788 C 216.355,55.626 216.064,56.649 216.064,57.854 C 216.064,59.504 216.649,60.884 217.819,61.992 C 218.989,63.099 220.73,63.714 223.043,63.834 L 223.043,65.211 L 225.101,65.211 L 225.101,63.834 C 227.206,63.705 228.816,63.213 229.93,62.36 C 231.044,61.507 231.77,60.339 232.108,58.855 L 226.863,58.035 C 226.6,58.693 226.363,59.15 226.152,59.405 C 225.94,59.66 225.59,59.917 225.101,60.177 L 225.101,56.158 C 227.958,55.406 229.866,54.614 230.826,53.779 C 232.095,52.657 232.728,51.234 232.728,49.51 C 232.728,48.499 232.501,47.572 232.045,46.728 C 231.589,45.884 231.007,45.18 230.297,44.614 C 229.588,44.048 228.833,43.638 228.034,43.383 C 227.235,43.128 226.257,42.978 225.101,42.931 L 225.101,40.303 L 223.043,40.303 Z M 203.21,46.13 C 201.98,47.36 200.881,48.672 199.915,50.049 L 199.915,71.6 L 248.061,71.6 L 248.061,50.05 C 247.094,48.673 245.996,47.361 244.766,46.13 C 244.314,45.679 243.852,45.245 243.379,44.829 L 243.379,66.697 L 204.598,66.697 L 204.597,44.829 C 204.125,45.245 203.661,45.678 203.21,46.13 Z M 226.856,47.43 C 227.227,47.834 227.413,48.285 227.413,48.786 C 227.413,49.222 227.256,49.623 226.941,49.99 C 226.626,50.356 226.013,50.696 225.101,51.012 L 225.101,46.561 C 225.9,46.737 226.486,47.027 226.856,47.43 Z M 223.043,56.686 L 223.043,60.246 C 222.441,60.052 222.023,59.81 221.788,59.523 C 221.553,59.236 221.436,58.897 221.436,58.508 C 221.436,58.1 221.556,57.745 221.795,57.444 C 222.034,57.143 222.45,56.89 223.043,56.686 Z" stroke-width="0.205" marker-start="none" marker-end="none" stroke-miterlimit="79.8403193612775" fill-opacity="0.200000"/>
    </g>
    <g id="Group_75" stroke-linecap="round" stroke-opacity="0.200000" stroke="none" fill="#000000" fill-opacity="0.200000">
     <path d="M 306.419,102.965 C 327.118,103.148 344.066,86.497 344.247,65.797 C 344.43,45.098 327.779,28.15 307.079,27.969 C 286.38,27.786 269.432,44.437 269.251,65.137 C 269.068,85.836 285.719,102.784 306.419,102.965 Z M 277.369,65.208 C 277.513,48.992 290.791,35.945 307.008,36.087 C 323.224,36.231 336.271,49.509 336.129,65.725 C 335.985,81.942 322.707,94.987 306.49,94.845 C 290.274,94.703 277.227,81.425 277.369,65.208 Z" stroke-linejoin="round" stroke-width="0.263" marker-start="none" marker-end="none" stroke-miterlimit="79.8403193612775" fill-opacity="0.200000"/>
     <path d="M 292.024,40.77 L 297,40.77 L 297,52.898 L 282.003,52.898 L 282.002,51.484 C 281.182,53.012 280.496,54.625 279.959,56.307 L 279.959,68.81 L 332.511,68.81 L 332.511,53.682 C 331.854,52.159 331.071,50.706 330.174,49.336 L 330.174,52.704 L 315.177,52.704 L 315.177,40.576 L 321.112,40.576 C 320.118,39.974 319.084,39.432 318.015,38.957 L 295.436,38.957 C 294.254,39.483 293.114,40.089 292.024,40.77 Z M 313.878,40.965 L 313.878,53.092 L 298.881,53.092 L 298.881,40.965 L 313.878,40.965 Z M 313.684,54.738 L 313.684,66.866 L 298.687,66.866 L 298.687,54.738 L 313.684,54.738 Z M 330.174,54.738 L 330.174,66.866 L 315.177,66.866 L 315.177,54.738 L 330.174,54.738 Z M 297.194,54.833 L 297.194,66.961 L 282.197,66.961 L 282.197,54.833 L 297.194,54.833 Z" stroke-linejoin="miter" stroke-width="0.129" marker-start="none" marker-end="none" stroke-miterlimit="79.8403193612775" fill-opacity="0.200000"/>
     <rect x="316.851" y="56.208" width="11.91" height="9.659" stroke-width="0.129" stroke-linejoin="miter" stroke-miterlimit="79.8403193612775" fill-opacity="0.200000"/>
    </g>
    <mask id="TranspMask_20">
     <rect x="-10%" y="-10%" width="120%" height="120%" fill="#333333" stroke="none"/>
    </mask>
    <g id="Group_76" stroke="none" mask="url(#TranspMask_20)">
     <path d="M 407.8,43.226 L 407.8,65.491 L 369.701,65.491 L 369.7,44.343 C 367.992,46.035 366.496,47.945 365.254,50.029 L 365.254,71.511 L 413.121,71.511 L 413.121,49.506 C 411.654,47.159 409.858,45.043 407.8,43.226 Z" fill="#000000" stroke-linejoin="miter" stroke-linecap="round" stroke-width="0.263" stroke-opacity="0.200000" marker-start="none" marker-end="none" stroke-miterlimit="79.8403193612775"/>
     <path d="M 388.919,102.965 C 409.618,103.148 426.566,86.497 426.747,65.797 C 426.93,45.098 410.279,28.15 389.579,27.969 C 368.88,27.786 351.932,44.437 351.751,65.137 C 351.568,85.836 368.219,102.784 388.919,102.965 Z M 359.869,65.208 C 360.013,48.992 373.291,35.945 389.508,36.087 C 405.724,36.231 418.771,49.509 418.629,65.725 C 418.485,81.942 405.207,94.987 388.99,94.845 C 372.774,94.703 359.727,81.425 359.869,65.208 Z" stroke-linecap="round" fill="#000000" stroke-linejoin="round" stroke-width="0.263" marker-start="none" marker-end="none" stroke-miterlimit="79.8403193612775"/>
     <text xml:space="preserve" transform="translate(376.664 38.881) scale(1 -1)"><tspan x="0" y="0" font-size="48" font-family="Wingdings" fill="#000000"></tspan></text>
    </g>
    <mask id="TranspMask_21">
     <rect x="-10%" y="-10%" width="120%" height="120%" fill="#333333" stroke="none"/>
    </mask>
    <g id="Group_77" stroke-linecap="round" stroke="none" fill="#000000" mask="url(#TranspMask_21)">
     <path d="M 445.229,38.947 C 430.59,53.586 430.59,77.35 445.229,91.989 C 459.868,106.628 483.632,106.628 498.271,91.989 C 512.91,77.35 512.91,53.586 498.271,38.947 C 483.632,24.308 459.868,24.308 445.229,38.947 Z M 492.528,44.69 C 503.997,56.16 503.997,74.777 492.528,86.246 C 481.059,97.715 462.441,97.715 450.972,86.246 C 439.503,74.777 439.503,56.16 450.972,44.69 C 462.441,33.221 481.059,33.221 492.528,44.69 Z" stroke-linejoin="round" stroke-width="0.262" marker-start="none" marker-end="none" stroke-miterlimit="79.8403193612775"/>
     <g id="Group_78" stroke-linejoin="miter" stroke-opacity="0.200000" stroke-width="0.168" stroke-miterlimit="79.8403193612775">
      <rect x="465.33" y="39.832" width="12.316" height="11.58"/>
      <path d="M 484.144,47.317 L 477.816,54.952 L 471.488,62.587 L 465.159,54.953 L 458.831,47.318 L 471.487,47.317 L 484.144,47.317 Z" marker-start="none" marker-end="none"/>
      <rect x="458.971" y="63.209" width="25.259" height="5.136"/>
     </g>
    </g>
    <g id="Group_79" stroke="none">
     <path d="M 527.729,38.947 C 513.09,53.586 513.09,77.35 527.729,91.989 C 542.368,106.628 566.132,106.628 580.771,91.989 C 595.41,77.35 595.41,53.586 580.771,38.947 C 566.132,24.308 542.368,24.308 527.729,38.947 Z M 575.028,44.69 C 586.497,56.16 586.497,74.777 575.028,86.246 C 563.559,97.715 544.941,97.715 533.472,86.246 C 522.003,74.777 522.003,56.16 533.472,44.69 C 544.941,33.221 563.559,33.221 575.028,44.69 Z" stroke-opacity="0.200000" stroke-linecap="round" fill="#000000" stroke-linejoin="round" stroke-width="0.262" marker-start="none" marker-end="none" stroke-miterlimit="79.8403193612775" fill-opacity="0.200000"/>
     <mask id="TranspMask_22">
      <rect x="-10%" y="-10%" width="120%" height="120%" fill="#333333" stroke="none"/>
     </mask>
     <g id="Group_80" fill-rule="nonzero" fill="#000000" mask="url(#TranspMask_22)">
      <g id="Group_81">
       <path d="M 544.564,39.016 L 544.566,44.649 L 542.819,44.649 L 542.817,39.7 C 540.295,40.785 537.895,42.238 535.697,44.061 L 535.698,49.218 C 535.698,55.038 538.947,57.95 545.438,57.947 L 563.505,57.947 C 569.953,57.95 573.178,55.038 573.178,49.218 L 573.178,44.061 C 570.981,42.238 568.58,40.785 566.058,39.7 L 566.058,44.649 L 564.311,44.649 L 564.311,39.016 C 557.939,36.749 550.938,36.749 544.564,39.016 Z M 553.308,49.371 L 559.105,49.371 L 559.105,47.808 C 559.105,47.335 559.489,46.951 559.963,46.951 L 560.699,46.951 L 560.699,47.83 L 561.883,47.83 L 561.883,46.951 L 562.509,46.951 C 562.982,46.951 563.367,47.335 563.367,47.808 L 563.367,51.975 C 563.367,52.211 563.174,52.404 562.938,52.404 L 553.258,52.404 C 552.613,54.139 550.941,55.376 548.983,55.376 C 546.466,55.376 544.422,53.332 544.422,50.815 C 544.422,48.299 546.466,46.256 548.983,46.256 C 550.993,46.256 552.703,47.561 553.308,49.371 Z M 548.93,61.979 C 547.408,64.038 546.647,66.368 546.647,68.965 C 546.647,71.516 547.397,73.697 548.897,75.513 C 550.397,77.325 552.222,78.233 554.37,78.233 C 556.475,78.233 558.289,77.325 559.813,75.513 C 561.334,73.697 562.095,71.516 562.095,68.965 C 562.095,66.368 561.334,64.038 559.813,61.979 C 558.289,59.919 556.475,58.89 554.37,58.89 C 552.266,58.89 550.453,59.919 548.93,61.979 Z" marker-start="none" marker-end="none"/>
      </g>
     </g>
    </g>
    <g id="Group_82" stroke="none">
     <path d="M 636.419,102.965 C 657.118,103.148 674.066,86.497 674.247,65.797 C 674.43,45.098 657.779,28.15 637.079,27.969 C 616.38,27.786 599.432,44.437 599.251,65.137 C 599.068,85.836 615.719,102.784 636.419,102.965 Z M 607.369,65.208 C 607.513,48.992 620.791,35.945 637.008,36.087 C 653.224,36.231 666.271,49.509 666.129,65.725 C 665.985,81.942 652.707,94.987 636.49,94.845 C 620.274,94.703 607.227,81.425 607.369,65.208 Z" stroke-opacity="0.200000" stroke-linejoin="round" stroke-linecap="round" stroke-width="0.263" fill="#000000" marker-start="none" marker-end="none" stroke-miterlimit="79.8403193612775" fill-opacity="0.200000"/>
     <mask id="TranspMask_23">
      <rect x="-10%" y="-10%" width="120%" height="120%" fill="#333333" stroke="none"/>
     </mask>
     <g id="Group_83" mask="url(#TranspMask_23)">
      <path d="M 624.93,75.44 L 624.868,69.049 L 624.649,69.049 C 620.792,69.049 617.659,65.916 617.659,62.058 L 617.659,49.895 C 617.659,46.035 620.792,42.903 624.649,42.903 L 649.258,42.903 C 653.116,42.903 656.249,46.035 656.249,49.895 L 656.249,62.058 C 656.249,65.916 653.116,69.049 649.258,69.049 L 632.618,69.049 L 628.424,75.536 C 626.336,76.79 625.485,76.321 624.93,75.44 Z M 627.027,73.493 L 630.379,68.287 L 631.387,66.655 L 648.372,66.655 C 651.476,66.655 653.996,64.135 653.996,61.032 L 653.996,50.705 C 653.996,47.602 651.476,45.083 648.372,45.083 L 625.488,45.083 C 622.386,45.083 619.867,47.602 619.867,50.705 L 619.867,61.032 C 619.867,64.135 622.386,66.655 625.488,66.655 L 627.026,66.655 L 627.025,67.553 L 627.027,67.553 L 627.026,68.945 C 627.027,68.98 627.031,69.015 627.039,69.049 L 627.027,69.049 L 627.027,73.493 Z" stroke-linejoin="miter" stroke-linecap="round" stroke-width="0.069" fill="#000000" marker-start="none" marker-end="none" stroke-miterlimit="79.8403193612775"/>
      <text xml:space="preserve" transform="translate(623.444 51.038) scale(1 -1)" font-size="15.609" font-weight="bold" font-family="Verdana" fill="#000000"><tspan x="0" y="0">A</tspan></text>
      <text xml:space="preserve" transform="translate(636.718 50.863) scale(1 -1)" font-family="KaiTi" fill="#000000"><tspan x="0" y="0" font-size="14.896">㕊</tspan></text>
     </g>
    </g>
    <rect x="13.821" y="107.863" width="103.347" height="21.999" stroke="#000000" stroke-linecap="round" fill="#ffffff" stroke-width="0.5" stroke-linejoin="miter" stroke-miterlimit="79.8403193612775"/>
    <text xml:space="preserve" transform="translate(21.82 115.08) scale(1 -1)" font-size="10" font-family="Arial" stroke-linejoin="round" stroke-linecap="round" stroke="none" stroke-width="0.25" fill="#000000" stroke-miterlimit="79.8403193612775"><tspan x="0" y="0">darkening example</tspan></text>
   </g>
  </g>
 </g>
</svg>
